# xmcd CD database file
#
# Track frame offsets:
#	150
#	21840
#	42183
#	63695
#	83531
#	102983
#	122095
#	142936
#	163013
#	181547
#	201932
#	220206
#	240225
#	259104
#	277747
#	296259
#	316847
#
# Disc length: 4471 seconds
#
# Revision: 0
# Processed by: cddbd v1.5.2PL0 Copyright (c) Steve Scherf et al.
# Submitted via: CDex 1.70beta2
#
DISCID=e1117511
DTITLE=Diverse - CUE 115
DYEAR=2004
DGENRE=New Age
TTITLE0=F.D. Project - Memorys
TTITLE1=F.D. Project - Endless Dream
TTITLE2=Harald Grosskopf - Bravery
TTITLE3=Harald Grosskopf - Endeavourance
TTITLE4=Frank Klare with Ron Boots - Second Movement
TTITLE5=Frank Klare with Ron Boots - Third Movement
TTITLE6=Create - Narissa
TTITLE7=Create - Medusa
TTITLE8=Vidna Obmana - Bloodshift
TTITLE9=Vidna Obmana - Cycle Of Agony
TTITLE10=Callisto - Sycorax Part 1
TTITLE11=Callisto - Sycorax Part 2
TTITLE12=Pete Namlook and Bill Naswell - The Old World
TTITLE13=Pete Namlook and Bill Naswell - East Leaves West
TTITLE14=Rob Papen - Daydreamer
TTITLE15=Rob Papen - Sion
TTITLE16=F.D. Project - Blue Vision
EXTD=YEAR: 2004
EXTT0=
EXTT1=
EXTT2=
EXTT3=
EXTT4=
EXTT5=
EXTT6=
EXTT7=
EXTT8=
EXTT9=
EXTT10=
EXTT11=
EXTT12=
EXTT13=
EXTT14=
EXTT15=
EXTT16=
PLAYORDER=
